<?xml version="1.0" encoding="iso-8859-1"?>
<!-- Generator: Adobe Illustrator 16.0.0, SVG Export Plug-In . SVG Version: 6.00 Build 0)  -->
<!DOCTYPE svg PUBLIC "-//W3C//DTD SVG 1.1//EN" "http://www.w3.org/Graphics/SVG/1.1/DTD/svg11.dtd">
<svg version="1.1" xmlns="http://www.w3.org/2000/svg" xmlns:xlink="http://www.w3.org/1999/xlink" x="0px" y="0px" width="50px"
	 height="50px" viewBox="0 0 50 50" style="enable-background:new 0 0 50 50;" xml:space="preserve">
<g id="Layer_1" style="display:none;">
	<rect style="display:inline;fill:#507CAE;" width="50" height="50"/>
</g>
<g id="Layer_2">
	<path style="fill:none;stroke:#FFFFFF;stroke-width:3;stroke-linejoin:round;stroke-miterlimit:10;" d="M41.872,33.437
		c0,4.659-3.776,8.437-8.436,8.437H16.563c-4.659,0-8.437-3.777-8.437-8.437V16.563c0-4.659,3.777-8.437,8.437-8.437h16.873
		c4.659,0,8.436,3.778,8.436,8.437V33.437z"/>
	<path style="fill:#FFFFFF;" d="M28.668,26.668c0,1.105-0.895,2-2,2h-3.336c-1.104,0-2-0.895-2-2v-3.336c0-1.104,0.896-2,2-2h3.336
		c1.105,0,2,0.896,2,2V26.668z"/>
</g>
</svg>
